$MeshFormat
2.2 0 8
$EndMeshFormat
$PhysicalNames
18
1 1 "electrode_1"
1 2 "electrode_2"
1 3 "electrode_3"
1 4 "electrode_4"
1 5 "electrode_5"
1 6 "electrode_6"
1 7 "electrode_7"
1 8 "electrode_8"
1 9 "electrode_9"
1 10 "electrode_10"
1 11 "electrode_11"
1 12 "electrode_12"
1 13 "electrode_13"
1 14 "electrode_14"
1 15 "electrode_15"
1 16 "electrode_16"
1 17 "insulating"
2 18 "sigma_1"
$EndPhysicalNames
$Nodes
33
1 0 0 0
2 0.67828369140625 0.0436553955078125 0
3 0.64666748046875 0.2092742919921875 0
4 0.60394287109375 0.3118133544921875 0
5 0.50860595703125 0.4508819580078125 0
6 0.4508819580078125 0.50860595703125 0
7 0.3118133544921875 0.60394287109375 0
8 0.2092742919921875 0.64666748046875 0
9 0.0436553955078125 0.67828369140625 0
10 -0.0436553955078125 0.67828369140625 0
11 -0.2092742919921875 0.64666748046875 0
12 -0.3118133544921875 0.60394287109375 0
13 -0.4508819580078125 0.50860595703125 0
14 -0.50860595703125 0.4508819580078125 0
15 -0.60394287109375 0.3118133544921875 0
16 -0.64666748046875 0.2092742919921875 0
17 -0.67828369140625 0.0436553955078125 0
18 -0.67828369140625 -0.0436553955078125 0
19 -0.64666748046875 -0.2092742919921875 0
20 -0.60394287109375 -0.3118133544921875 0
21 -0.50860595703125 -0.4508819580078125 0
22 -0.4508819580078125 -0.50860595703125 0
23 -0.3118133544921875 -0.60394287109375 0
24 -0.2092742919921875 -0.64666748046875 0
25 -0.0436553955078125 -0.67828369140625 0
26 0.0436553955078125 -0.67828369140625 0
27 0.2092742919921875 -0.64666748046875 0
28 0.3118133544921875 -0.60394287109375 0
29 0.4508819580078125 -0.50860595703125 0
30 0.50860595703125 -0.4508819580078125 0
31 0.60394287109375 -0.3118133544921875 0
32 0.64666748046875 -0.2092742919921875 0
33 0.67828369140625 -0.0436553955078125 0
$EndNodes
$Elements
64
1 1 2 1 1 2 3
2 1 2 17 17 3 4
3 1 2 2 2 4 5
4 1 2 17 17 5 6
5 1 2 3 3 6 7
6 1 2 17 17 7 8
7 1 2 4 4 8 9
8 1 2 17 17 9 10
9 1 2 5 5 10 11
10 1 2 17 17 11 12
11 1 2 6 6 12 13
12 1 2 17 17 13 14
13 1 2 7 7 14 15
14 1 2 17 17 15 16
15 1 2 8 8 16 17
16 1 2 17 17 17 18
17 1 2 9 9 18 19
18 1 2 17 17 19 20
19 1 2 10 10 20 21
20 1 2 17 17 21 22
21 1 2 11 11 22 23
22 1 2 17 17 23 24
23 1 2 12 12 24 25
24 1 2 17 17 25 26
25 1 2 13 13 26 27
26 1 2 17 17 27 28
27 1 2 14 14 28 29
28 1 2 17 17 29 30
29 1 2 15 15 30 31
30 1 2 17 17 31 32
31 1 2 16 16 32 33
32 1 2 17 17 33 2
33 2 2 18 18 1 2 3
34 2 2 18 18 1 3 4
35 2 2 18 18 1 4 5
36 2 2 18 18 1 5 6
37 2 2 18 18 1 6 7
38 2 2 18 18 1 7 8
39 2 2 18 18 1 8 9
40 2 2 18 18 1 9 10
41 2 2 18 18 1 10 11
42 2 2 18 18 1 11 12
43 2 2 18 18 1 12 13
44 2 2 18 18 1 13 14
45 2 2 18 18 1 14 15
46 2 2 18 18 1 15 16
47 2 2 18 18 1 16 17
48 2 2 18 18 1 17 18
49 2 2 18 18 1 18 19
50 2 2 18 18 1 19 20
51 2 2 18 18 1 20 21
52 2 2 18 18 1 21 22
53 2 2 18 18 1 22 23
54 2 2 18 18 1 23 24
55 2 2 18 18 1 24 25
56 2 2 18 18 1 25 26
57 2 2 18 18 1 26 27
58 2 2 18 18 1 27 28
59 2 2 18 18 1 28 29
60 2 2 18 18 1 29 30
61 2 2 18 18 1 30 31
62 2 2 18 18 1 31 32
63 2 2 18 18 1 32 33
64 2 2 18 18 1 33 2
$EndElements
