<?xml version="1.0" encoding="UTF-8" standalone="no"?>
<svg
   width="424.35345pt"
   height="280.47437pt"
   viewBox="0 0 424.35347 280.47438"
   version="1.1"
   id="svg123"
   sodipodi:docname="diff_comparison_left.svg"
   inkscape:version="1.4.2 (ebf0e94, 2025-05-08)"
   inkscape:export-filename="diff_comparison_left.png"
   inkscape:export-xdpi="600"
   inkscape:export-ydpi="600"
   xmlns:inkscape="http://www.inkscape.org/namespaces/inkscape"
   xmlns:sodipodi="http://sodipodi.sourceforge.net/DTD/sodipodi-0.dtd"
   xmlns:xlink="http://www.w3.org/1999/xlink"
   xmlns="http://www.w3.org/2000/svg"
   xmlns:svg="http://www.w3.org/2000/svg"
   xmlns:rdf="http://www.w3.org/1999/02/22-rdf-syntax-ns#"
   xmlns:cc="http://creativecommons.org/ns#"
   xmlns:dc="http://purl.org/dc/elements/1.1/">
  <sodipodi:namedview
     id="namedview123"
     pagecolor="#ffffff"
     bordercolor="#000000"
     borderopacity="0.25"
     inkscape:showpageshadow="2"
     inkscape:pageopacity="0.0"
     inkscape:pagecheckerboard="0"
     inkscape:deskcolor="#d1d1d1"
     inkscape:document-units="pt"
     inkscape:zoom="1.6677144"
     inkscape:cx="-33.878702"
     inkscape:cy="362.17232"
     inkscape:window-width="3840"
     inkscape:window-height="2036"
     inkscape:window-x="1878"
     inkscape:window-y="-12"
     inkscape:window-maximized="1"
     inkscape:current-layer="figure_1" />
  <metadata
     id="metadata1">
    <rdf:RDF>
      <cc:Work>
        <dc:type
           rdf:resource="http://purl.org/dc/dcmitype/StillImage" />
        <dc:date>2026-01-03T09:13:50.471098</dc:date>
        <dc:format>image/svg+xml</dc:format>
        <dc:creator>
          <cc:Agent>
            <dc:title>Matplotlib v3.5.1, https://matplotlib.org/</dc:title>
          </cc:Agent>
        </dc:creator>
      </cc:Work>
    </rdf:RDF>
  </metadata>
  <defs
     id="defs1">
    <style
       type="text/css"
       id="style1">*{stroke-linejoin: round; stroke-linecap: butt}</style>
  </defs>
  <g
     id="figure_1"
     transform="translate(0.22485865)">
    <g
       id="g124">
      <g
         id="patch_1"
         transform="translate(-0.22485865)">
        <path
           d="M 0,280.47437 H 424.35344 V 0 H 0 Z"
           style="fill:#ffffff"
           id="path1" />
      </g>
      <g
         id="patch_2">
        <path
           d="M 58.523438,242.91812 H 417.15344 V 22.318125 H 58.523438 Z"
           style="fill:#ffffff"
           id="path2" />
      </g>
      <g
         id="matplotlib.axis_1">
        <g
           id="xtick_1">
          <g
             id="line2d_1">
            <defs
               id="defs2">
              <path
                 id="mddf2ecca52"
                 d="M 0,0 V 3.5"
                 style="stroke:#000000;stroke-width:0.8" />
            </defs>
            <g
               id="g2">
              <use
                 xlink:href="#mddf2ecca52"
                 x="74.824799"
                 y="242.91812"
                 style="stroke:#000000;stroke-width:0.8"
                 id="use2" />
            </g>
          </g>
          <g
             id="text_1">
            <!-- 0 -->
            <g
               transform="matrix(0.1,0,0,-0.1,71.643551,257.51656)"
               id="g3">
              <defs
                 id="defs3">
                <path
                   id="DejaVuSans-30"
                   d="m 2034,4250 q -487,0 -733,-480 -245,-479 -245,-1442 0,-959 245,-1439 246,-480 733,-480 491,0 736,480 246,480 246,1439 0,963 -246,1442 -245,480 -736,480 z m 0,500 q 785,0 1199,-621 414,-620 414,-1801 0,-1178 -414,-1799 -414,-620 -1199,-620 -784,0 -1198,620 -414,621 -414,1799 0,1181 414,1801 414,621 1198,621 z"
                   transform="scale(0.015625)" />
              </defs>
              <use
                 xlink:href="#DejaVuSans-30"
                 id="use3" />
            </g>
          </g>
        </g>
        <g
           id="xtick_2">
          <g
             id="line2d_2">
            <g
               id="g4">
              <use
                 xlink:href="#mddf2ecca52"
                 x="153.57535"
                 y="242.91812"
                 style="stroke:#000000;stroke-width:0.8"
                 id="use4" />
            </g>
          </g>
          <g
             id="text_2">
            <!-- 50 -->
            <g
               transform="matrix(0.1,0,0,-0.1,147.21285,257.51656)"
               id="g6">
              <defs
                 id="defs4">
                <path
                   id="DejaVuSans-35"
                   d="M 691,4666 H 3169 V 4134 H 1269 V 2991 q 137,47 274,70 138,23 276,23 781,0 1237,-428 457,-428 457,-1159 Q 3513,744 3044,326 2575,-91 1722,-91 1428,-91 1123,-41 819,9 494,109 v 635 q 281,-153 581,-228 300,-75 634,-75 541,0 856,284 316,284 316,772 0,487 -316,771 -315,285 -856,285 -253,0 -505,-56 -251,-56 -513,-175 z"
                   transform="scale(0.015625)" />
              </defs>
              <use
                 xlink:href="#DejaVuSans-35"
                 id="use5" />
              <use
                 xlink:href="#DejaVuSans-30"
                 x="63.623047"
                 id="use6" />
            </g>
          </g>
        </g>
        <g
           id="xtick_3">
          <g
             id="line2d_3">
            <g
               id="g7">
              <use
                 xlink:href="#mddf2ecca52"
                 x="232.3259"
                 y="242.91812"
                 style="stroke:#000000;stroke-width:0.8"
                 id="use7" />
            </g>
          </g>
          <g
             id="text_3">
            <!-- 100 -->
            <g
               transform="matrix(0.1,0,0,-0.1,222.78215,257.51656)"
               id="g10">
              <defs
                 id="defs7">
                <path
                   id="DejaVuSans-31"
                   d="M 794,531 H 1825 V 4091 L 703,3866 v 575 l 1116,225 h 631 V 531 H 3481 V 0 H 794 Z"
                   transform="scale(0.015625)" />
              </defs>
              <use
                 xlink:href="#DejaVuSans-31"
                 id="use8" />
              <use
                 xlink:href="#DejaVuSans-30"
                 x="63.623047"
                 id="use9" />
              <use
                 xlink:href="#DejaVuSans-30"
                 x="127.24609"
                 id="use10" />
            </g>
          </g>
        </g>
        <g
           id="xtick_4">
          <g
             id="line2d_4">
            <g
               id="g11">
              <use
                 xlink:href="#mddf2ecca52"
                 x="311.07645"
                 y="242.91812"
                 style="stroke:#000000;stroke-width:0.8"
                 id="use11" />
            </g>
          </g>
          <g
             id="text_4">
            <!-- 150 -->
            <g
               transform="matrix(0.1,0,0,-0.1,301.5327,257.51656)"
               id="g14">
              <use
                 xlink:href="#DejaVuSans-31"
                 id="use12" />
              <use
                 xlink:href="#DejaVuSans-35"
                 x="63.623047"
                 id="use13" />
              <use
                 xlink:href="#DejaVuSans-30"
                 x="127.24609"
                 id="use14" />
            </g>
          </g>
        </g>
        <g
           id="xtick_5">
          <g
             id="line2d_5">
            <g
               id="g15">
              <use
                 xlink:href="#mddf2ecca52"
                 x="389.827"
                 y="242.91812"
                 style="stroke:#000000;stroke-width:0.8"
                 id="use15" />
            </g>
          </g>
          <g
             id="text_5">
            <!-- 200 -->
            <g
               transform="matrix(0.1,0,0,-0.1,380.28325,257.51656)"
               id="g18">
              <defs
                 id="defs15">
                <path
                   id="DejaVuSans-32"
                   d="M 1228,531 H 3431 V 0 H 469 v 531 q 359,372 979,998 621,627 780,809 303,340 423,576 121,236 121,464 0,372 -261,606 -261,235 -680,235 -297,0 -627,-103 -329,-103 -704,-313 v 638 q 381,153 712,231 332,78 607,78 725,0 1156,-363 431,-362 431,-968 0,-288 -108,-546 -107,-257 -392,-607 -78,-91 -497,-524 Q 1991,1309 1228,531 Z"
                   transform="scale(0.015625)" />
              </defs>
              <use
                 xlink:href="#DejaVuSans-32"
                 id="use16" />
              <use
                 xlink:href="#DejaVuSans-30"
                 x="63.623047"
                 id="use17" />
              <use
                 xlink:href="#DejaVuSans-30"
                 x="127.24609"
                 id="use18" />
            </g>
          </g>
        </g>
        <g
           id="text_6">
          <!-- Measurement index -->
          <g
             transform="matrix(0.1,0,0,-0.1,188.24547,271.19469)"
             id="g35">
            <defs
               id="defs18">
              <path
                 id="DejaVuSans-4d"
                 d="m 628,4666 h 941 L 2759,1491 3956,4666 h 941 V 0 H 4281 V 4097 L 3078,897 H 2444 L 1241,4097 V 0 H 628 Z"
                 transform="scale(0.015625)" />
              <path
                 id="DejaVuSans-65"
                 d="M 3597,1894 V 1613 H 953 q 38,-594 358,-905 320,-311 892,-311 331,0 642,81 311,81 618,244 V 178 Q 3153,47 2828,-22 2503,-91 2169,-91 1331,-91 842,396 353,884 353,1716 q 0,859 464,1363 464,505 1252,505 706,0 1117,-455 411,-454 411,-1235 z m -575,169 q -6,471 -264,752 -258,282 -683,282 -481,0 -770,-272 -289,-272 -333,-766 z"
                 transform="scale(0.015625)" />
              <path
                 id="DejaVuSans-61"
                 d="m 2194,1759 q -697,0 -966,-159 -269,-159 -269,-544 0,-306 202,-486 202,-179 548,-179 479,0 768,339 289,339 289,901 v 128 z m 1147,238 V 0 H 2766 V 531 Q 2569,213 2275,61 1981,-91 1556,-91 q -537,0 -855,302 -317,302 -317,808 0,590 395,890 396,300 1180,300 h 807 v 57 q 0,397 -261,614 -261,217 -733,217 -300,0 -585,-72 -284,-72 -546,-216 v 532 q 315,122 612,182 297,61 578,61 760,0 1135,-394 375,-393 375,-1193 z"
                 transform="scale(0.015625)" />
              <path
                 id="DejaVuSans-73"
                 d="m 2834,3397 v -544 q -243,125 -506,187 -262,63 -544,63 -428,0 -642,-131 -214,-131 -214,-394 0,-200 153,-314 153,-114 616,-217 l 197,-44 q 612,-131 870,-370 258,-239 258,-667 0,-488 -386,-773 Q 2250,-91 1575,-91 1294,-91 989,-36 684,19 347,128 v 594 q 319,-166 628,-249 309,-82 613,-82 406,0 624,139 219,139 219,392 0,234 -158,359 -157,125 -692,241 l -200,47 q -534,112 -772,345 -237,233 -237,639 0,494 350,762 350,269 994,269 318,0 599,-47 282,-46 519,-140 z"
                 transform="scale(0.015625)" />
              <path
                 id="DejaVuSans-75"
                 d="m 544,1381 v 2119 h 575 V 1403 q 0,-497 193,-746 194,-248 582,-248 465,0 735,297 271,297 271,810 v 1984 h 575 V 0 H 2900 V 538 Q 2691,219 2414,64 2138,-91 1772,-91 1169,-91 856,284 544,659 544,1381 Z m 1447,2203 z"
                 transform="scale(0.015625)" />
              <path
                 id="DejaVuSans-72"
                 d="m 2631,2963 q -97,56 -211,82 -114,27 -251,27 -488,0 -749,-317 -261,-317 -261,-911 V 0 H 581 v 3500 h 578 v -544 q 182,319 472,473 291,155 707,155 59,0 131,-8 72,-7 159,-23 z"
                 transform="scale(0.015625)" />
              <path
                 id="DejaVuSans-6d"
                 d="m 3328,2828 q 216,388 516,572 300,184 706,184 547,0 844,-383 297,-382 297,-1088 V 0 h -578 v 2094 q 0,503 -179,746 -178,244 -543,244 -447,0 -707,-297 -259,-296 -259,-809 V 0 h -578 v 2094 q 0,506 -178,748 -178,242 -550,242 -441,0 -701,-298 -259,-298 -259,-808 V 0 H 581 v 3500 h 578 v -544 q 197,322 472,475 275,153 653,153 382,0 649,-194 267,-193 395,-562 z"
                 transform="scale(0.015625)" />
              <path
                 id="DejaVuSans-6e"
                 d="M 3513,2113 V 0 h -575 v 2094 q 0,497 -194,743 -194,247 -581,247 -466,0 -735,-297 -269,-296 -269,-809 V 0 H 581 v 3500 h 578 v -544 q 207,316 486,472 280,156 646,156 603,0 912,-373 310,-373 310,-1098 z"
                 transform="scale(0.015625)" />
              <path
                 id="DejaVuSans-74"
                 d="M 1172,4494 V 3500 H 2356 V 3053 H 1172 V 1153 q 0,-428 117,-550 117,-122 477,-122 h 590 V 0 H 1766 Q 1100,0 847,248 594,497 594,1153 V 3053 H 172 v 447 h 422 v 994 z"
                 transform="scale(0.015625)" />
              <path
                 id="DejaVuSans-20"
                 transform="scale(0.015625)"
                 d="" />
              <path
                 id="DejaVuSans-69"
                 d="m 603,3500 h 575 V 0 H 603 Z m 0,1363 h 575 V 4134 H 603 Z"
                 transform="scale(0.015625)" />
              <path
                 id="DejaVuSans-64"
                 d="m 2906,2969 v 1894 h 575 V 0 H 2906 V 525 Q 2725,213 2448,61 2172,-91 1784,-91 1150,-91 751,415 353,922 353,1747 q 0,825 398,1331 399,506 1033,506 388,0 664,-152 277,-151 458,-463 z M 947,1747 q 0,-634 261,-995 261,-361 717,-361 456,0 718,361 263,361 263,995 0,634 -263,995 -262,361 -718,361 -456,0 -717,-361 -261,-361 -261,-995 z"
                 transform="scale(0.015625)" />
              <path
                 id="DejaVuSans-78"
                 d="M 3513,3500 2247,1797 3578,0 H 2900 L 1881,1375 863,0 H 184 L 1544,1831 300,3500 h 678 l 928,-1247 928,1247 z"
                 transform="scale(0.015625)" />
            </defs>
            <use
               xlink:href="#DejaVuSans-4d"
               id="use19" />
            <use
               xlink:href="#DejaVuSans-65"
               x="86.279297"
               id="use20" />
            <use
               xlink:href="#DejaVuSans-61"
               x="147.80273"
               id="use21" />
            <use
               xlink:href="#DejaVuSans-73"
               x="209.08203"
               id="use22" />
            <use
               xlink:href="#DejaVuSans-75"
               x="261.18164"
               id="use23" />
            <use
               xlink:href="#DejaVuSans-72"
               x="324.56055"
               id="use24" />
            <use
               xlink:href="#DejaVuSans-65"
               x="363.42383"
               id="use25" />
            <use
               xlink:href="#DejaVuSans-6d"
               x="424.94727"
               id="use26" />
            <use
               xlink:href="#DejaVuSans-65"
               x="522.35938"
               id="use27" />
            <use
               xlink:href="#DejaVuSans-6e"
               x="583.88281"
               id="use28" />
            <use
               xlink:href="#DejaVuSans-74"
               x="647.26172"
               id="use29" />
            <use
               xlink:href="#DejaVuSans-20"
               x="686.4707"
               id="use30" />
            <use
               xlink:href="#DejaVuSans-69"
               x="718.25781"
               id="use31" />
            <use
               xlink:href="#DejaVuSans-6e"
               x="746.04102"
               id="use32" />
            <use
               xlink:href="#DejaVuSans-64"
               x="809.41992"
               id="use33" />
            <use
               xlink:href="#DejaVuSans-65"
               x="872.89648"
               id="use34" />
            <use
               xlink:href="#DejaVuSans-78"
               x="932.66992"
               id="use35" />
          </g>
        </g>
      </g>
      <g
         id="matplotlib.axis_2">
        <g
           id="ytick_1">
          <g
             id="line2d_6">
            <defs
               id="defs35">
              <path
                 id="m9bf35ff170"
                 d="M 0,0 H -3.5"
                 style="stroke:#000000;stroke-width:0.8" />
            </defs>
            <g
               id="g36">
              <use
                 xlink:href="#m9bf35ff170"
                 x="58.523438"
                 y="222.0898"
                 style="stroke:#000000;stroke-width:0.8"
                 id="use36" />
            </g>
          </g>
          <g
             id="text_7">
            <!-- −0.02 -->
            <g
               transform="matrix(0.1,0,0,-0.1,20.878125,225.88902)"
               id="g41">
              <defs
                 id="defs36">
                <path
                   id="DejaVuSans-2212"
                   d="M 678,2272 H 4684 V 1741 H 678 Z"
                   transform="scale(0.015625)" />
                <path
                   id="DejaVuSans-2e"
                   d="m 684,794 h 660 V 0 H 684 Z"
                   transform="scale(0.015625)" />
              </defs>
              <use
                 xlink:href="#DejaVuSans-2212"
                 id="use37" />
              <use
                 xlink:href="#DejaVuSans-30"
                 x="83.789062"
                 id="use38" />
              <use
                 xlink:href="#DejaVuSans-2e"
                 x="147.41211"
                 id="use39" />
              <use
                 xlink:href="#DejaVuSans-30"
                 x="179.19922"
                 id="use40" />
              <use
                 xlink:href="#DejaVuSans-32"
                 x="242.82227"
                 id="use41" />
            </g>
          </g>
        </g>
        <g
           id="ytick_2">
          <g
             id="line2d_7">
            <g
               id="g42">
              <use
                 xlink:href="#m9bf35ff170"
                 x="58.523438"
                 y="175.31509"
                 style="stroke:#000000;stroke-width:0.8"
                 id="use42" />
            </g>
          </g>
          <g
             id="text_8">
            <!-- −0.01 -->
            <g
               transform="matrix(0.1,0,0,-0.1,20.878125,179.11431)"
               id="g47">
              <use
                 xlink:href="#DejaVuSans-2212"
                 id="use43" />
              <use
                 xlink:href="#DejaVuSans-30"
                 x="83.789062"
                 id="use44" />
              <use
                 xlink:href="#DejaVuSans-2e"
                 x="147.41211"
                 id="use45" />
              <use
                 xlink:href="#DejaVuSans-30"
                 x="179.19922"
                 id="use46" />
              <use
                 xlink:href="#DejaVuSans-31"
                 x="242.82227"
                 id="use47" />
            </g>
          </g>
        </g>
        <g
           id="ytick_3">
          <g
             id="line2d_8">
            <g
               id="g48">
              <use
                 xlink:href="#m9bf35ff170"
                 x="58.523438"
                 y="128.54039"
                 style="stroke:#000000;stroke-width:0.8"
                 id="use48" />
            </g>
          </g>
          <g
             id="text_9">
            <!-- 0.00 -->
            <g
               transform="matrix(0.1,0,0,-0.1,29.257813,132.33961)"
               id="g52">
              <use
                 xlink:href="#DejaVuSans-30"
                 id="use49" />
              <use
                 xlink:href="#DejaVuSans-2e"
                 x="63.623047"
                 id="use50" />
              <use
                 xlink:href="#DejaVuSans-30"
                 x="95.410156"
                 id="use51" />
              <use
                 xlink:href="#DejaVuSans-30"
                 x="159.0332"
                 id="use52" />
            </g>
          </g>
        </g>
        <g
           id="ytick_4">
          <g
             id="line2d_9">
            <g
               id="g53">
              <use
                 xlink:href="#m9bf35ff170"
                 x="58.523438"
                 y="81.765686"
                 style="stroke:#000000;stroke-width:0.8"
                 id="use53" />
            </g>
          </g>
          <g
             id="text_10">
            <!-- 0.01 -->
            <g
               transform="matrix(0.1,0,0,-0.1,29.257813,85.564903)"
               id="g57">
              <use
                 xlink:href="#DejaVuSans-30"
                 id="use54" />
              <use
                 xlink:href="#DejaVuSans-2e"
                 x="63.623047"
                 id="use55" />
              <use
                 xlink:href="#DejaVuSans-30"
                 x="95.410156"
                 id="use56" />
              <use
                 xlink:href="#DejaVuSans-31"
                 x="159.0332"
                 id="use57" />
            </g>
          </g>
        </g>
        <g
           id="ytick_5">
          <g
             id="line2d_10">
            <g
               id="g58">
              <use
                 xlink:href="#m9bf35ff170"
                 x="58.523438"
                 y="34.990978"
                 style="stroke:#000000;stroke-width:0.8"
                 id="use58" />
            </g>
          </g>
          <g
             id="text_11">
            <!-- 0.02 -->
            <g
               transform="matrix(0.1,0,0,-0.1,29.257813,38.790197)"
               id="g62">
              <use
                 xlink:href="#DejaVuSans-30"
                 id="use59" />
              <use
                 xlink:href="#DejaVuSans-2e"
                 x="63.623047"
                 id="use60" />
              <use
                 xlink:href="#DejaVuSans-30"
                 x="95.410156"
                 id="use61" />
              <use
                 xlink:href="#DejaVuSans-32"
                 x="159.0332"
                 id="use62" />
            </g>
          </g>
        </g>
        <g
           id="text_12">
          <!-- Voltage -->
          <g
             transform="matrix(0,-0.1,-0.1,0,14.798438,151.37437)"
             id="g69">
            <defs
               id="defs62">
              <path
                 id="DejaVuSans-56"
                 d="M 1831,0 50,4666 H 709 L 2188,738 3669,4666 h 656 L 2547,0 Z"
                 transform="scale(0.015625)" />
              <path
                 id="DejaVuSans-6f"
                 d="m 1959,3097 q -462,0 -731,-361 -269,-361 -269,-989 0,-628 267,-989 268,-361 733,-361 460,0 728,362 269,363 269,988 0,622 -269,986 -268,364 -728,364 z m 0,487 q 750,0 1178,-488 429,-487 429,-1349 Q 3566,888 3137,398 2709,-91 1959,-91 1206,-91 779,398 353,888 353,1747 q 0,862 426,1349 427,488 1180,488 z"
                 transform="scale(0.015625)" />
              <path
                 id="DejaVuSans-6c"
                 d="m 603,4863 h 575 V 0 H 603 Z"
                 transform="scale(0.015625)" />
              <path
                 id="DejaVuSans-67"
                 d="m 2906,1791 q 0,625 -258,968 -257,344 -723,344 -462,0 -720,-344 -258,-343 -258,-968 0,-622 258,-966 258,-344 720,-344 466,0 723,344 258,344 258,966 z M 3481,434 q 0,-893 -397,-1329 -396,-436 -1215,-436 -303,0 -572,45 -269,45 -522,139 v 559 q 253,-137 500,-202 247,-66 503,-66 566,0 847,295 281,295 281,892 V 616 Q 2728,306 2450,153 2172,0 1784,0 1141,0 747,490 353,981 353,1791 q 0,812 394,1302 394,491 1037,491 388,0 666,-153 278,-153 456,-462 v 531 h 575 z"
                 transform="scale(0.015625)" />
            </defs>
            <use
               xlink:href="#DejaVuSans-56"
               id="use63" />
            <use
               xlink:href="#DejaVuSans-6f"
               x="60.658203"
               id="use64" />
            <use
               xlink:href="#DejaVuSans-6c"
               x="121.83984"
               id="use65" />
            <use
               xlink:href="#DejaVuSans-74"
               x="149.62305"
               id="use66" />
            <use
               xlink:href="#DejaVuSans-61"
               x="188.83203"
               id="use67" />
            <use
               xlink:href="#DejaVuSans-67"
               x="250.11133"
               id="use68" />
            <use
               xlink:href="#DejaVuSans-65"
               x="313.58789"
               id="use69" />
          </g>
        </g>
      </g>
      <g
         id="line2d_11">
        <path
           d="m 74.824801,107.7309 1.575011,14.41725 1.575011,5.55481 1.575011,-3.15193 1.575011,3.45071 1.575011,1.24983 1.575011,-1.031 1.575011,-0.4082 1.575011,0.13467 1.575011,-0.45449 1.575011,-0.2567 1.575011,-2.60066 1.575011,-18.0363 1.575011,2.59646 1.575011,16.0374 1.575011,0.86268 1.575014,-0.6691 1.57501,-0.40819 1.57501,3.25713 1.57501,-0.76168 1.57501,0.28195 1.57501,-0.37874 1.57501,4.67109 1.57501,-9.77141 1.57502,-6.37962 1.57501,-22.905169 1.57501,25.787779 1.57501,-4.8857 1.57501,12.4394 1.57501,0.59757 1.57501,1.03521 1.57501,-0.85426 1.57501,0.71539 1.57501,-0.42082 1.57501,-3.13931 1.57501,2.98361 1.57502,-6.39224 1.57501,-15.25048 1.57501,2.68904 1.57501,1.41395 1.57501,16.46243 1.57501,1.48549 1.57501,0.0505 1.57501,-0.58915 1.57501,1.17409 1.57501,-0.16412 1.57502,-6.53953 1.57501,9.73354 1.57501,-5.00353 1.57501,-6.13554 1.57501,1.72115 1.57501,-13.47041 1.57501,-1.58649 1.57501,14.87595 1.57501,6.81726 1.57501,-1.72536 1.57502,1.11097 1.57501,0.2062 1.57501,8.02501 1.57501,-11.76609 1.57501,-1.34242 1.57501,2.55438 1.57501,1.15304 1.57501,-0.88793 1.57501,-6.23653 1.57501,-60.539011 1.57502,76.467001 1.57501,-4.96987 1.57501,-4.30498 1.57501,0.63123 1.57501,105.93274 1.57501,-160.76965 1.57501,-21.630091 1.57501,68.888051 1.57501,2.34396 1.57501,22.48436 1.57502,-46.062839 1.57501,-11.071745 1.57501,33.497184 1.57501,-7.14971 1.57501,13.84915 1.57501,0.37453 1.57501,-40.705816 1.57501,58.224506 1.57501,4.22502 1.57501,-20.32135 1.57501,0.0547 1.57502,-8.20597 1.57501,9.53997 1.57501,3.69899 1.57501,-19.57649 1.57501,-71.135228 1.57501,79.202328 1.57501,0.99734 1.57501,-82.981281 1.57501,124.692851 1.57501,10.98758 1.57502,-46.28166 1.57501,0.28194 1.57501,-17.77959 1.57501,23.34282 1.57501,9.80087 1.57501,-33.77913 1.57501,-56.158282 1.57501,67.436232 1.57501,2.92469 1.57502,3.9557 1.57501,-2.32713 1.57501,0.0126 1.57501,0.64806 1.57501,-0.11783 1.57501,3.88416 1.57501,6.19025 1.57501,-9.93554 1.57501,0.53865 1.57501,-1.97364 1.57501,-9.56942 1.57502,-31.683456 1.57501,33.997956 1.57501,7.7599 1.57501,-0.67331 1.57501,-0.0337 1.57501,1.12358 1.57501,-0.0589 1.57501,-0.69014 1.57501,0.88792 1.57501,0.0926 1.57502,-1.82214 1.57501,-16.04162 1.57501,-47.0728 1.57501,48.33947 1.57501,15.60396 1.57501,0.44186 3.15002,0.25249 1.57501,-0.7196 1.57501,0.74906 1.57502,1.75061 1.57501,-1.19934 1.57501,-1.40974 1.57501,-0.81218 1.57501,-1.233 1.57501,-0.58915 1.57501,-2.7774 1.57501,-2.29767 1.57501,7.82302 1.57501,0.4629 1.57501,-0.6691 1.57502,0.37874 1.57501,1.58228 1.57501,0.22724 1.57501,-2.89944 1.57501,0.94263 1.57501,-1.93998 1.57501,1.62857 1.57501,-42.814111 1.57501,-33.450894 1.57501,78.398565 1.57502,-3.01307 1.57501,31.48567 1.57501,-39.42231 1.57501,-18.158337 1.57501,58.211877 1.57501,74.78373 1.57501,-167.153477 1.57501,-20.70429 1.57501,87.702867 1.57501,-23.34703 1.57502,-6.89302 1.57501,20.52334 1.57501,2.99623 1.57501,-6.1187 1.57501,9.03918 1.57501,4.95304 1.57501,-11.65668 1.57501,-20.9147 1.57501,40.1335 1.57501,3.56013 1.57502,-17.8301 1.57501,0.72802 1.57501,1.24983 1.57501,-0.7196 1.57501,-26.26331 1.57501,-11.854467 1.57501,33.417227 1.57501,20.75058 1.57501,-39.31711 1.57501,-65.529917 1.57502,133.016647 1.57501,15.14527 1.57501,-63.85085 1.57501,6.01771 1.57501,1.53599 1.57501,-3.86312 1.57501,-95.286022 1.57501,60.231809 1.57501,12.094333 1.57501,15.11161 1.57502,5.12557 1.57501,-2.52912 1.57501,5.06666 1.57501,0.13887 1.57501,0.55969 1.57501,-1.43499 1.57501,0.72381 1.57501,-0.0926 1.57501,0.14307 1.57501,-7.77252 v 0"
           clip-path="url(#pb45bbb1826)"
           style="fill:none;stroke:#0000ff;stroke-linecap:square"
           id="path69" />
      </g>
      <g
         id="line2d_12">
        <path
           d="m 74.824801,108.15336 1.575011,13.54853 1.575011,4.50298 1.575011,-2.77657 1.575011,5.73311 1.575011,-2.71104 1.575011,4.71424 1.575011,-4.30652 1.575011,3.79294 1.575011,0.10974 1.575011,-7.34524 1.575011,2.75923 1.575011,-23.63014 1.575011,8.6357 1.575011,13.08731 1.575011,-4.21857 1.575014,8.19803 1.57501,-2.73764 1.57501,5.2594 1.57501,-4.63179 1.57501,3.27086 1.57501,-0.5438 1.57501,-4.94989 1.57501,1.36823 3.15003,-33.481313 1.57501,26.313713 1.57501,-6.25742 1.57501,14.70005 1.57501,-2.28617 1.57501,6.90596 1.57501,-5.07442 1.57501,3.35136 1.57501,-0.73684 1.57501,-3.3406 1.57501,1.89654 1.57502,-10.72327 1.57501,-7.38111 1.57501,-1.01558 1.57501,-10.077622 1.57501,28.946952 1.57501,-2.37647 1.57501,9.76012 1.57501,-6.30537 1.57501,3.60063 1.57501,-1.03715 1.57502,-2.4102 1.57501,2.46051 1.57501,-7.06643 1.57501,-2.61971 1.57501,0.67327 1.57501,-10.52157 1.57501,-0.16579 1.57501,4.1953 1.57501,19.77446 1.57501,-7.3936 1.57502,4.85221 1.57501,-1.33613 1.57501,-1.93179 1.57501,2.7657 1.57501,-5.47364 1.57501,-1.01579 1.57501,0.75362 1.57501,-1.93724 1.57501,-6.15277 1.57501,-57.682681 1.57502,63.218301 1.57501,-4.58518 1.57501,9.75621 1.57501,-0.78937 1.57501,-1.19508 1.57501,3.31316 1.57501,-4.89546 3.15002,-1.82646 1.57501,-3.37924 1.57502,-8.19162 1.57501,-13.781702 1.57501,21.295732 1.57501,-7.84489 1.57501,18.22751 1.57501,-0.66022 1.57501,-0.47218 1.57501,4.3923 1.57501,-4.01836 1.57501,0.36129 1.57501,-0.19551 1.57502,-0.91432 1.57501,-1.6896 1.57501,0.4652 1.57501,-16.00816 1.57501,-56.296565 1.57501,58.208595 1.57501,5.12515 1.57501,3.08317 1.57501,7.35099 1.57501,-3.10694 1.57502,1.3913 1.57501,-0.31986 1.57501,-0.94092 1.57501,-1.23813 1.57501,0.3749 1.57501,-9.43639 1.57501,-54.777651 1.57501,66.920441 1.57501,-4.43496 1.57502,1.75337 1.57501,8.50233 1.57501,-3.71836 1.57501,2.11419 3.15002,-0.80034 1.57501,0.40843 1.57501,3.22906 1.57501,0.57795 1.57501,-11.33381 1.57501,-4.27901 1.57502,-31.764043 1.57501,19.555963 1.57501,17.87324 1.57501,-2.28315 1.57501,4.52401 1.57501,-0.4194 1.57501,-0.72103 1.57501,-0.0342 1.57501,1.99811 1.57501,-0.51028 1.57502,-8.52539 1.57501,-7.53872 1.57501,-56.808615 1.57501,50.496945 1.57501,24.94272 1.57501,-5.07306 1.57501,6.88728 3.15002,-2.56393 1.57501,0.0463 1.57502,2.24738 1.57501,0.7413 1.57501,-3.62139 1.57501,0.93258 1.57501,-16.82753 1.57501,14.42606 1.57501,-2.10578 1.57501,-8.42276 1.57501,15.76698 3.15002,-3.72694 1.57502,-0.14674 1.57501,1.94707 1.57501,0.44232 1.57501,-3.07463 1.57501,1.06173 1.57501,-11.04216 1.57501,4.86595 1.57501,-35.310233 1.57501,-41.561611 1.57501,71.405744 1.57502,5.96397 1.57501,0.4987 1.57501,1.46255 1.57501,2.87747 1.57501,0.92073 1.57501,-2.33792 1.57501,1.78463 1.57501,-7.48681 1.57501,3.53615 1.57501,-17.50764 1.57502,-1.94848 1.57501,16.3982 1.57501,4.56165 1.57501,-0.8923 1.57501,1.99086 1.57501,3.44144 1.57501,1.22592 1.57501,-1.79046 1.57501,2.86377 1.57501,-4.52812 1.57502,4.68749 1.57501,-8.13673 1.57501,5.121 1.57501,-4.91079 1.57501,-22.70222 1.57501,5.70746 1.57501,8.29797 1.57501,7.09828 1.57501,2.81871 1.57501,-1.21228 1.57502,3.74087 1.57501,-3.6167 1.57501,4.07607 1.57501,-6.70152 1.57501,2.33109 1.57501,-8.26049 1.57501,-70.778264 1.57501,45.755331 1.57501,17.367793 1.57501,11.85968 1.57502,4.42263 1.57501,-1.06725 1.57501,4.97292 1.57501,-2.58669 1.57501,4.79896 1.57501,-4.2917 1.57501,4.69436 1.57501,0.61921 1.57501,-15.1395 1.57501,4.16155 v 0"
           clip-path="url(#pb45bbb1826)"
           style="fill:none;stroke:#ff0000;stroke-dasharray:3.7, 1.6;stroke-dashoffset:0"
           id="path70" />
      </g>
      <g
         id="patch_3">
        <path
           d="M 58.523438,242.91812 V 22.318125"
           style="fill:none;stroke:#000000;stroke-width:0.8;stroke-linecap:square;stroke-linejoin:miter"
           id="path71" />
      </g>
      <g
         id="patch_4">
        <path
           d="M 417.15344,242.91812 V 22.318125"
           style="fill:none;stroke:#000000;stroke-width:0.8;stroke-linecap:square;stroke-linejoin:miter"
           id="path72" />
      </g>
      <g
         id="patch_5">
        <path
           d="M 58.523438,242.91812 H 417.15344"
           style="fill:none;stroke:#000000;stroke-width:0.8;stroke-linecap:square;stroke-linejoin:miter"
           id="path73" />
      </g>
      <g
         id="patch_6">
        <path
           d="M 58.523438,22.318125 H 417.15344"
           style="fill:none;stroke:#000000;stroke-width:0.8;stroke-linecap:square;stroke-linejoin:miter"
           id="path74" />
      </g>
      <g
         id="text_13">
        <!-- Diff comparison -->
        <g
           transform="matrix(0.12,0,0,-0.12,190.38687,16.318125)"
           id="g88">
          <defs
             id="defs74">
            <path
               id="DejaVuSans-44"
               d="M 1259,4147 V 519 h 763 q 966,0 1414,437 448,438 448,1382 0,937 -448,1373 -448,436 -1414,436 z m -631,519 h 1297 q 1356,0 1990,-564 635,-564 635,-1764 Q 4550,1131 3912,565 3275,0 1925,0 H 628 Z"
               transform="scale(0.015625)" />
            <path
               id="DejaVuSans-66"
               d="m 2375,4863 v -479 h -550 q -309,0 -430,-125 -120,-125 -120,-450 v -309 h 947 V 3053 H 1275 V 0 H 697 V 3053 H 147 v 447 h 550 v 244 q 0,584 272,851 272,268 862,268 z"
               transform="scale(0.015625)" />
            <path
               id="DejaVuSans-63"
               d="m 3122,3366 v -538 q -244,135 -489,202 -245,67 -495,67 -560,0 -870,-355 -309,-354 -309,-995 0,-641 309,-996 310,-354 870,-354 250,0 495,67 245,67 489,202 V 134 Q 2881,22 2623,-34 2366,-91 2075,-91 1284,-91 818,406 353,903 353,1747 q 0,856 470,1346 471,491 1290,491 265,0 518,-55 253,-54 491,-163 z"
               transform="scale(0.015625)" />
            <path
               id="DejaVuSans-70"
               d="M 1159,525 V -1331 H 581 v 4831 h 578 v -531 q 182,312 458,463 277,152 661,152 638,0 1036,-506 399,-506 399,-1331 0,-825 -399,-1332 -398,-506 -1036,-506 -384,0 -661,152 -276,152 -458,464 z m 1957,1222 q 0,634 -261,995 -261,361 -717,361 -457,0 -718,-361 -261,-361 -261,-995 0,-634 261,-995 261,-361 718,-361 456,0 717,361 261,361 261,995 z"
               transform="scale(0.015625)" />
          </defs>
          <use
             xlink:href="#DejaVuSans-44"
             id="use74" />
          <use
             xlink:href="#DejaVuSans-69"
             x="77.001953"
             id="use75" />
          <use
             xlink:href="#DejaVuSans-66"
             x="104.78516"
             id="use76" />
          <use
             xlink:href="#DejaVuSans-66"
             x="139.99023"
             id="use77" />
          <use
             xlink:href="#DejaVuSans-20"
             x="175.19531"
             id="use78" />
          <use
             xlink:href="#DejaVuSans-63"
             x="206.98242"
             id="use79" />
          <use
             xlink:href="#DejaVuSans-6f"
             x="261.96289"
             id="use80" />
          <use
             xlink:href="#DejaVuSans-6d"
             x="323.14453"
             id="use81" />
          <use
             xlink:href="#DejaVuSans-70"
             x="420.55664"
             id="use82" />
          <use
             xlink:href="#DejaVuSans-61"
             x="484.0332"
             id="use83" />
          <use
             xlink:href="#DejaVuSans-72"
             x="545.3125"
             id="use84" />
          <use
             xlink:href="#DejaVuSans-69"
             x="586.42578"
             id="use85" />
          <use
             xlink:href="#DejaVuSans-73"
             x="614.20898"
             id="use86" />
          <use
             xlink:href="#DejaVuSans-6f"
             x="666.30859"
             id="use87" />
          <use
             xlink:href="#DejaVuSans-6e"
             x="727.49023"
             id="use88" />
        </g>
      </g>
      <g
         id="legend_1"
         transform="translate(124.90898,1.6864398)">
        <g
           id="patch_7">
          <path
             d="M 65.523438,237.91812 H 200.99219 q 2,0 2,-2 v -28.35625 q 0,-2 -2,-2 H 65.523438 q -2,0 -2,2 v 28.35625 q 0,2 2,2 z"
             style="opacity:0.8;fill:#ffffff;stroke:#cccccc;stroke-linejoin:miter"
             id="path88" />
        </g>
        <g
           id="line2d_13">
          <path
             d="m 67.523438,213.66031 h 10 10"
             style="fill:none;stroke:#0000ff;stroke-linecap:square"
             id="path89" />
        </g>
        <g
           id="text_14">
          <!-- Measured diff (vi-vh) -->
          <g
             transform="matrix(0.1,0,0,-0.1,95.523438,217.16031)"
             id="g109">
            <defs
               id="defs89">
              <path
                 id="DejaVuSans-28"
                 d="m 1984,4856 q -418,-718 -622,-1422 -203,-703 -203,-1425 0,-721 205,-1429 205,-708 620,-1424 h -500 q -468,735 -701,1444 -233,709 -233,1409 0,697 231,1403 232,707 703,1444 z"
                 transform="scale(0.015625)" />
              <path
                 id="DejaVuSans-76"
                 d="M 191,3500 H 800 L 1894,563 2988,3500 h 609 L 2284,0 h -781 z"
                 transform="scale(0.015625)" />
              <path
                 id="DejaVuSans-2d"
                 d="M 313,2009 H 1997 V 1497 H 313 Z"
                 transform="scale(0.015625)" />
              <path
                 id="DejaVuSans-68"
                 d="M 3513,2113 V 0 h -575 v 2094 q 0,497 -194,743 -194,247 -581,247 -466,0 -735,-297 -269,-296 -269,-809 V 0 H 581 v 4863 h 578 V 2956 q 207,316 486,472 280,156 646,156 603,0 912,-373 310,-373 310,-1098 z"
                 transform="scale(0.015625)" />
              <path
                 id="DejaVuSans-29"
                 d="m 513,4856 h 500 q 468,-737 701,-1444 233,-706 233,-1403 0,-700 -233,-1409 -233,-709 -701,-1444 H 513 q 415,716 620,1424 205,708 205,1429 0,722 -205,1425 -205,704 -620,1422 z"
                 transform="scale(0.015625)" />
            </defs>
            <use
               xlink:href="#DejaVuSans-4d"
               id="use89" />
            <use
               xlink:href="#DejaVuSans-65"
               x="86.279297"
               id="use90" />
            <use
               xlink:href="#DejaVuSans-61"
               x="147.80273"
               id="use91" />
            <use
               xlink:href="#DejaVuSans-73"
               x="209.08203"
               id="use92" />
            <use
               xlink:href="#DejaVuSans-75"
               x="261.18164"
               id="use93" />
            <use
               xlink:href="#DejaVuSans-72"
               x="324.56055"
               id="use94" />
            <use
               xlink:href="#DejaVuSans-65"
               x="363.42383"
               id="use95" />
            <use
               xlink:href="#DejaVuSans-64"
               x="424.94727"
               id="use96" />
            <use
               xlink:href="#DejaVuSans-20"
               x="488.42383"
               id="use97" />
            <use
               xlink:href="#DejaVuSans-64"
               x="520.21094"
               id="use98" />
            <use
               xlink:href="#DejaVuSans-69"
               x="583.6875"
               id="use99" />
            <use
               xlink:href="#DejaVuSans-66"
               x="611.4707"
               id="use100" />
            <use
               xlink:href="#DejaVuSans-66"
               x="646.67578"
               id="use101" />
            <use
               xlink:href="#DejaVuSans-20"
               x="681.88086"
               id="use102" />
            <use
               xlink:href="#DejaVuSans-28"
               x="713.66797"
               id="use103" />
            <use
               xlink:href="#DejaVuSans-76"
               x="752.68164"
               id="use104" />
            <use
               xlink:href="#DejaVuSans-69"
               x="811.86133"
               id="use105" />
            <use
               xlink:href="#DejaVuSans-2d"
               x="839.64453"
               id="use106" />
            <use
               xlink:href="#DejaVuSans-76"
               x="873.10352"
               id="use107" />
            <use
               xlink:href="#DejaVuSans-68"
               x="932.2832"
               id="use108" />
            <use
               xlink:href="#DejaVuSans-29"
               x="995.66211"
               id="use109" />
          </g>
        </g>
        <g
           id="line2d_14">
          <path
             d="m 67.523438,228.33844 h 10 10"
             style="fill:none;stroke:#ff0000;stroke-dasharray:3.7, 1.6;stroke-dashoffset:0"
             id="path109" />
        </g>
        <g
           id="text_15">
          <!-- Predicted diff -->
          <g
             transform="matrix(0.1,0,0,-0.1,95.523438,231.83844)"
             id="g123">
            <defs
               id="defs109">
              <path
                 id="DejaVuSans-50"
                 d="M 1259,4147 V 2394 h 794 q 441,0 681,228 241,228 241,650 0,419 -241,647 -240,228 -681,228 z m -631,519 h 1425 q 785,0 1186,-355 402,-355 402,-1039 0,-691 -402,-1044 -401,-353 -1186,-353 H 1259 V 0 H 628 Z"
                 transform="scale(0.015625)" />
            </defs>
            <use
               xlink:href="#DejaVuSans-50"
               id="use110" />
            <use
               xlink:href="#DejaVuSans-72"
               x="58.552734"
               id="use111" />
            <use
               xlink:href="#DejaVuSans-65"
               x="97.416016"
               id="use112" />
            <use
               xlink:href="#DejaVuSans-64"
               x="158.93945"
               id="use113" />
            <use
               xlink:href="#DejaVuSans-69"
               x="222.41602"
               id="use114" />
            <use
               xlink:href="#DejaVuSans-63"
               x="250.19922"
               id="use115" />
            <use
               xlink:href="#DejaVuSans-74"
               x="305.17969"
               id="use116" />
            <use
               xlink:href="#DejaVuSans-65"
               x="344.38867"
               id="use117" />
            <use
               xlink:href="#DejaVuSans-64"
               x="405.91211"
               id="use118" />
            <use
               xlink:href="#DejaVuSans-20"
               x="469.38867"
               id="use119" />
            <use
               xlink:href="#DejaVuSans-64"
               x="501.17578"
               id="use120" />
            <use
               xlink:href="#DejaVuSans-69"
               x="564.65234"
               id="use121" />
            <use
               xlink:href="#DejaVuSans-66"
               x="592.43555"
               id="use122" />
            <use
               xlink:href="#DejaVuSans-66"
               x="627.64062"
               id="use123" />
          </g>
        </g>
      </g>
    </g>
  </g>
  <defs
     id="defs123">
    <clipPath
       id="pb45bbb1826">
      <rect
         x="58.523438"
         y="22.318125"
         width="358.63"
         height="220.60001"
         id="rect123" />
    </clipPath>
  </defs>
</svg>
